<svg width="20" height="20" viewBox="0 0 20 20" fill="none" xmlns="http://www.w3.org/2000/svg">
<path opacity="0.4" fill-rule="evenodd" clip-rule="evenodd" d="M3.90747 18.4591C3.90747 17.6019 4.58694 16.908 5.42629 16.908C6.25564 16.908 6.93511 17.6019 6.93511 18.4591C6.93511 19.3061 6.25564 20 5.42629 20C4.58694 20 3.90747 19.3061 3.90747 18.4591ZM15.1487 18.4591C15.1487 17.6019 15.8282 16.908 16.6675 16.908C17.4969 16.908 18.1764 17.6019 18.1764 18.4591C18.1764 19.3061 17.4969 20 16.6675 20C15.8282 20 15.1487 19.3061 15.1487 18.4591Z" fill="#0A99C6"/>
<path fill-rule="evenodd" clip-rule="evenodd" d="M18.1766 3.92812C18.7861 3.92812 19.1858 4.14242 19.5855 4.61184C19.9852 5.08125 20.0551 5.75476 19.9652 6.36602L19.0159 13.0603C18.8361 14.3471 17.7569 15.2951 16.4879 15.2951H5.58639C4.25742 15.2951 3.15828 14.2542 3.04837 12.9082L2.12908 1.78412L0.620259 1.5188C0.22057 1.44736 -0.0592117 1.04938 0.0107338 0.641192C0.0806793 0.222799 0.470376 -0.0527271 0.880056 0.008501L3.2632 0.37587C3.60293 0.438118 3.85274 0.722829 3.88272 1.06979L4.07257 3.35564C4.10254 3.68321 4.36234 3.92812 4.68209 3.92812H18.1766ZM12.1213 9.23354H14.8891C15.3088 9.23354 15.6385 8.88658 15.6385 8.46819C15.6385 8.03959 15.3088 7.70284 14.8891 7.70284H12.1213C11.7016 7.70284 11.3719 8.03959 11.3719 8.46819C11.3719 8.88658 11.7016 9.23354 12.1213 9.23354Z" fill="#0A99C6"/>
</svg>
