<svg width="24" height="24" viewBox="0 0 24 24" fill="none" xmlns="http://www.w3.org/2000/svg">
<path opacity="0.4" fill-rule="evenodd" clip-rule="evenodd" d="M4.68896 22.1559C4.68896 21.13 5.50433 20.2995 6.51154 20.2995C7.50677 20.2995 8.32213 21.13 8.32213 22.1559C8.32213 23.1695 7.50677 24 6.51154 24C5.50433 24 4.68896 23.1695 4.68896 22.1559ZM18.1784 22.1559C18.1784 21.13 18.9938 20.2995 20.001 20.2995C20.9962 20.2995 21.8116 21.13 21.8116 22.1559C21.8116 23.1695 20.9962 24 20.001 24C18.9938 24 18.1784 23.1695 18.1784 22.1559Z" fill="white"/>
<path fill-rule="evenodd" clip-rule="evenodd" d="M21.8119 4.7011C22.5433 4.7011 23.0229 4.95757 23.5026 5.51935C23.9822 6.08114 24.0661 6.88718 23.9582 7.61873L22.8191 15.6303C22.6033 17.1703 21.3083 18.3049 19.7855 18.3049H6.70367C5.10891 18.3049 3.78994 17.0592 3.65804 15.4483L2.5549 2.1352L0.744311 1.81766C0.264684 1.73217 -0.0710541 1.25588 0.0128805 0.767365C0.0968151 0.266642 0.564451 -0.0631028 1.05607 0.0101738L3.91584 0.449833C4.32352 0.524331 4.62329 0.865067 4.65926 1.2803L4.88708 4.01596C4.92305 4.40799 5.23481 4.7011 5.61851 4.7011H21.8119ZM14.5455 11.0505H17.867C18.3706 11.0505 18.7663 10.6353 18.7663 10.1346C18.7663 9.62163 18.3706 9.21861 17.867 9.21861H14.5455C14.0419 9.21861 13.6462 9.62163 13.6462 10.1346C13.6462 10.6353 14.0419 11.0505 14.5455 11.0505Z" fill="white"/>
</svg>
