<svg width="20" height="20" viewBox="0 0 20 20" fill="none" xmlns="http://www.w3.org/2000/svg">
<path opacity="0.4" d="M14.34 0H5.67C2.28 0 0 2.38 0 5.92V14.09C0 17.62 2.28 20 5.67 20H14.34C17.73 20 20 17.62 20 14.09V5.92C20 2.38 17.73 0 14.34 0Z" fill="#0A99C6"/>
<path fill-rule="evenodd" clip-rule="evenodd" d="M9.12475 6.18951C9.12475 6.67151 9.51575 7.06451 9.99475 7.06451C10.4878 7.06451 10.8798 6.67151 10.8798 6.18951C10.8798 5.70751 10.4878 5.31451 10.0048 5.31451C9.51975 5.31451 9.12475 5.70751 9.12475 6.18951ZM10.8698 9.36231C10.8698 8.88031 10.4768 8.48731 9.99475 8.48731C9.51275 8.48731 9.11975 8.88031 9.11975 9.36231V13.7823C9.11975 14.2643 9.51275 14.6573 9.99475 14.6573C10.4768 14.6573 10.8698 14.2643 10.8698 13.7823V9.36231Z" fill="#0A99C6"/>
</svg>
