<svg width="73" height="33" viewBox="0 0 73 33" fill="none" xmlns="http://www.w3.org/2000/svg">
<path d="M37.2538 24.9221L36.7943 25.0258V25.2665H39.7803V25.0108L39.3909 24.8758V12.0407H36.7793V12.2801L37.2532 12.4902L37.2538 24.9221Z" fill="#0A99C6"/>
<path d="M42.9285 1.09263C41.2302 1.21928 40.3309 2.74422 40.5285 5.5009C40.834 8.51838 41.0983 10.1225 39.1278 10.9567C41.3025 10.9449 42.203 9.90678 41.7134 5.85357C41.4111 3.3836 41.7592 1.73082 42.9285 1.09263ZM38.8292 0C39.523 1.13728 38.9981 2.74185 37.5032 4.72953C35.0545 7.99576 35.3147 9.34526 37.191 10.4446C35.9014 8.73532 36.9313 7.47909 38.7042 5.01958C40.2539 2.73 40.2381 0.959658 38.8292 0Z" fill="#E10034"/>
<path d="M38.3197 10.7313C39.105 10.9235 40.3537 9.45016 40.0377 7.48382C39.939 6.71582 39.8574 6.23352 39.8756 4.37091C39.4949 5.2543 38.823 6.03298 38.2658 6.77964C36.8678 8.4664 37.1259 10.545 38.3197 10.7313Z" fill="#0A99C6"/>
<path d="M21.3577 24.9334V16.4966C21.3577 13.8518 20.3083 12.3671 18.1074 12.0411C15.0212 11.788 14.2311 15.4662 15.9811 16.4687C14.8569 14.5243 15.9104 12.3519 17.7837 12.838C19.1289 13.1571 19.8313 15.1789 18.4968 16.5685C17.6093 17.6785 15.3488 18.837 14.6424 20.4283C13.9651 21.7521 14.2034 24.0142 15.6041 24.7532C17.0773 25.5313 18.2754 25.2799 19.1655 24.0273V25.2651H21.7722V25.0027L21.3577 24.9334ZM19.1313 21.7523C19.1313 23.4713 17.9751 23.8243 16.9985 23.1978C15.8089 22.233 16.0704 20.0649 17.161 18.9498C17.7272 18.311 18.4841 17.7418 19.1319 16.9692L19.1313 21.7523Z" fill="#0A99C6"/>
<path d="M52.0398 10.9567C52.2923 10.9567 52.5392 10.8817 52.7492 10.7413C52.9591 10.6009 53.1228 10.4014 53.2194 10.1679C53.316 9.93447 53.3412 9.6776 53.2919 9.42979C53.2427 9.18198 53.121 8.95436 52.9424 8.77571C52.7639 8.59706 52.5363 8.47539 52.2887 8.42611C52.041 8.37684 51.7842 8.40215 51.5509 8.49885C51.3176 8.59555 51.1182 8.7593 50.9779 8.96939C50.8376 9.17948 50.7627 9.42648 50.7627 9.67915C50.7628 10.018 50.8974 10.3429 51.1369 10.5825C51.3764 10.8221 51.7012 10.9567 52.0398 10.9567Z" fill="#0A99C6"/>
<path d="M69.1999 20.8507C70.297 22.945 69.1037 24.4562 67.8655 24.5138C66.6455 24.4743 65.8797 23.5277 65.8862 22.2136C65.9711 21.132 66.6356 20.2921 68.0612 19.3613C70.3069 17.7729 71.3291 16.0119 70.6863 14.0756C69.2925 10.3703 63.7639 11.7988 63.7639 16.5161V20.6819C63.7639 23.615 64.9578 25.0602 67.2097 25.2123C69.6477 25.3208 71.0372 22.3452 69.1999 20.8507ZM65.823 15.2551C65.823 12.962 67.9621 12.6376 68.7775 14.2842C69.9864 17.1294 67.1998 18.9721 65.823 20.4201V15.2551Z" fill="#0A99C6"/>
<path d="M72.8553 10.6268C72.7619 10.457 72.6213 10.3179 72.4506 10.2263C72.2884 10.1342 72.1051 10.0858 71.9186 10.0858C71.7321 10.0858 71.5488 10.1342 71.3866 10.2263C71.2157 10.3182 71.0747 10.4572 70.9802 10.6268C70.8861 10.7924 70.8361 10.9794 70.8351 11.1699C70.8359 11.3588 70.8859 11.5441 70.9802 11.7078C71.0718 11.8779 71.2107 12.0178 71.3801 12.1106C71.5445 12.2031 71.73 12.2517 71.9186 12.2517C72.1072 12.2517 72.2927 12.2031 72.4571 12.1106C72.6267 12.0179 72.7657 11.8779 72.8574 11.7078C72.9512 11.543 73.0004 11.3566 73 11.167C72.9996 10.9774 72.9497 10.7912 72.8553 10.6268ZM72.702 11.6194C72.6242 11.76 72.5083 11.8758 72.3675 11.9531C72.2308 12.0312 72.076 12.0723 71.9186 12.0723C71.7612 12.0723 71.6065 12.0312 71.4697 11.9531C71.3289 11.8754 71.2126 11.7598 71.134 11.6194C71.056 11.4819 71.0154 11.3264 71.0161 11.1683C71.0169 11.0102 71.0589 10.855 71.1382 10.7183C71.2155 10.5767 71.3321 10.4605 71.4739 10.3838C71.6101 10.3081 71.7632 10.2679 71.919 10.267C72.0741 10.2676 72.2265 10.3077 72.3618 10.3838C72.5049 10.4598 72.6227 10.5761 72.7006 10.7183C72.7793 10.8558 72.8209 11.0114 72.8215 11.1699C72.8202 11.3271 72.7791 11.4815 72.702 11.6184V11.6194Z" fill="#0A99C6"/>
<path d="M72.2799 11.5394C72.231 11.4559 72.1733 11.378 72.1077 11.3069C72.0789 11.2815 72.0458 11.2614 72.01 11.2476C72.1005 11.2428 72.1861 11.2048 72.2505 11.1409C72.28 11.1117 72.3033 11.0768 72.319 11.0384C72.3348 10.9999 72.3426 10.9588 72.3421 10.9172C72.3412 10.8562 72.322 10.7969 72.287 10.7469C72.2519 10.6952 72.2012 10.6559 72.1423 10.6349C72.0451 10.6093 71.9447 10.5985 71.8443 10.6029H71.4436V11.7672H71.6308V11.2733H71.7418C71.7952 11.2692 71.8483 11.2837 71.8923 11.3142C71.9741 11.3915 72.0411 11.4833 72.0898 11.5849L72.1938 11.7676H72.4231L72.2799 11.5394ZM71.8607 11.1119H71.6308V10.7604H71.8463C71.9091 10.7571 71.9721 10.7638 72.0329 10.7801C72.0655 10.7924 72.0938 10.8139 72.1142 10.8422C72.1334 10.8693 72.1433 10.902 72.1423 10.9352C72.1431 10.9598 72.1381 10.9842 72.1279 11.0065C72.1176 11.0289 72.1022 11.0485 72.083 11.0638C72.0161 11.1036 71.938 11.1204 71.8607 11.1119Z" fill="#0A99C6"/>
<path d="M53.2347 12.0407H50.6227V12.2801L51.0966 12.4902V24.9221L50.6365 25.0258V25.2665H53.6232V25.0108L53.2337 24.8758L53.2347 12.0407Z" fill="#0A99C6"/>
<path d="M49.0871 24.7604V8.07794H46.4923V8.31859L46.9711 8.56814V11.835C46.9711 13.4174 46.6499 13.9536 45.5872 15.016C42.9971 17.0302 41.171 18.0612 40.8389 20.7531C40.6066 22.8022 41.5816 24.4099 43.1656 25.0787C44.6577 25.5494 45.9537 25.1708 47.0249 23.682V25.2645H49.551V24.9319L49.0871 24.7604ZM47.0501 21.5531C47.0501 23.359 45.4901 24.337 44.1059 23.402C42.4394 22.032 42.6203 19.3235 44.4041 17.3643C45.4535 16.2142 46.465 15.5618 47.0503 14.5509L47.0501 21.5531Z" fill="#0A99C6"/>
<path d="M62.7051 12.0335V12.3119L62.2159 12.5704V26.711C62.2351 27.4446 62.0781 28.1721 61.7582 28.8324C60.8322 30.5642 59.2186 31.3605 57.3649 30.5771C55.6916 29.9207 55.4703 27.3444 56.7689 26.4132C55.8318 28.4598 56.4966 29.9778 57.9946 30.1783C59.091 30.2451 60.0468 29.3287 59.9743 27.6056V24.3771C59.6652 24.6257 59.3199 24.8256 58.9504 24.9699C57.2904 25.6021 55.5735 24.8118 55.0064 23.1845C54.8172 22.6271 54.7138 22.0442 54.6997 21.4557L54.6977 21.4576V12.5297L54.2465 12.2926V12.0335H57.0238V12.3119L56.5451 12.5656L56.5497 13.7948L56.5694 21.0717C56.5694 22.4926 57.1848 23.3242 58.2342 23.7814C58.4636 23.8639 58.7084 23.8944 58.951 23.8705C59.6286 23.7873 60.154 23.161 60.154 21.6598V12.5314L59.6985 12.2932V12.0335H62.7051Z" fill="#0A99C6"/>
<path d="M15.395 18.4313C14.8202 18.1012 14.2087 17.8394 13.5731 17.6514C13.3817 17.5896 13.1878 17.5343 12.9921 17.4835C12.5493 17.3649 12.0999 17.2687 11.6469 17.1932C11.3597 17.1472 11.0696 17.1047 10.778 17.0694C8.7162 16.836 6.63461 16.8376 4.5732 17.0741C4.29871 17.1083 4.02401 17.1472 3.74932 17.1926C3.2813 17.2717 2.81703 17.3705 2.35967 17.4936C2.18075 17.5424 1.99967 17.5937 1.82312 17.6516C1.1873 17.84 0.575493 18.1017 0 18.4313C0.102266 18.2804 0.213861 18.136 0.334133 17.999C0.45736 17.8692 0.585326 17.7388 0.719414 17.618C0.989459 17.3748 1.27923 17.1544 1.58575 16.9591C1.83556 16.801 2.09429 16.6574 2.36066 16.5292C2.74096 16.3421 3.13338 16.1807 3.53526 16.0461C3.87867 15.9311 4.22524 15.8349 4.57419 15.7541C5.59906 15.5185 6.64754 15.4014 7.69908 15.4049C8.73535 15.4048 9.76847 15.519 10.7797 15.7454C11.1439 15.8285 11.5059 15.9287 11.8613 16.0479C12.248 16.1786 12.6262 16.333 12.9939 16.5102C13.2749 16.6448 13.5478 16.7957 13.8112 16.9621C14.1184 17.1558 14.4081 17.3758 14.6772 17.6196C14.813 17.7405 14.9412 17.8709 15.0646 18.0008C15.1837 18.1372 15.294 18.281 15.395 18.4313Z" fill="#0A99C6"/>
<path d="M35.9411 25.0424V25.2658H32.9858V25.0424L33.4455 24.8606V16.6872C33.4455 15.5477 33.254 14.6086 32.8051 14.0908C31.9986 13.077 30.3039 13.12 29.7144 13.9775C30.0501 14.8104 30.1674 16.0283 30.1674 17.1367V24.8132L30.606 25.0277V25.2648H27.9092V25.0173L28.3267 24.8703V16.4614C28.3267 15.1725 27.9857 13.7116 27.2238 13.3925C26.2956 13.0598 25.5766 13.6879 25.5766 14.7679V24.8584L25.9801 25.0394V25.2658H23.026V25.0394L23.4875 24.8584V12.4872L22.9984 12.2106V12.0395H25.5764V12.8199C26.97 11.4823 28.6326 11.7996 29.4654 13.4251C30.6656 12.0699 32.3385 11.6204 33.6734 12.2856C35.474 13.2647 35.5337 15.3632 35.5337 17.6221V24.8606L35.9411 25.0424Z" fill="#0A99C6"/>
<path d="M13.4834 8.07794V8.24905L12.9921 8.52744V16.5098C12.6244 16.3326 12.2462 16.1782 11.8595 16.0474C11.5041 15.9289 11.1421 15.8281 10.778 15.7449V8.07794H13.4834Z" fill="#0A99C6"/>
<path d="M4.57323 8.07794V15.754C4.22428 15.8348 3.87771 15.9318 3.5343 16.046C3.13242 16.1806 2.74 16.342 2.3597 16.5291V8.51954L1.88062 8.24944V8.07794H4.57323Z" fill="#0A99C6"/>
<path d="M13.3051 25.0282V25.2653H10.4293V25.048L10.778 24.9773V15.7454C11.1422 15.8286 11.5041 15.9288 11.8596 16.0479C12.2462 16.1787 12.6244 16.3331 12.9921 16.5103V24.9504L13.3051 25.0282Z" fill="#0A99C6"/>
<path d="M4.88622 25.0282V25.2653H2.01035V25.0479L2.35968 24.9772V16.5292C2.73999 16.3421 3.1324 16.1807 3.53428 16.0461C3.8777 15.9311 4.22427 15.8349 4.57322 15.7541V24.9527L4.88622 25.0282Z" fill="#0A99C6"/>
<path d="M14.8451 28.9847C14.8451 28.6036 14.8275 28.2179 14.8097 27.837C15.0315 27.8498 15.2572 27.8587 15.4786 27.8587C15.7 27.8587 15.9269 27.837 16.148 27.837C17.1852 27.837 17.6106 28.3902 17.6106 29.3044C17.6106 30.4881 16.6976 30.8956 15.9976 30.8956C15.7981 30.8956 15.6026 30.8744 15.4039 30.8744C15.2053 30.8744 15.009 30.8827 14.8097 30.8956C14.8275 30.5146 14.8451 30.1289 14.8451 29.7472V28.9847ZM15.2086 29.7472C15.2086 30.0633 15.2171 30.3818 15.2351 30.6881C15.4271 30.7198 15.6215 30.7345 15.8161 30.7322C16.4678 30.7322 17.1763 30.4753 17.1763 29.3044C17.1763 28.2756 16.6447 28.0227 15.9176 28.0227C15.6894 28.0236 15.4615 28.0383 15.2351 28.067C15.2171 28.3507 15.2086 28.6662 15.2086 28.9847V29.7472Z" fill="#0A99C6"/>
<path d="M19.0905 28.7323C19.6039 28.7323 20.1671 29.0287 20.1671 29.8364C20.1671 30.6441 19.6041 30.9405 19.0905 30.9405C18.5769 30.9405 18.0132 30.6441 18.0132 29.8364C18.0132 29.0287 18.5761 28.7323 19.0905 28.7323ZM19.0905 30.799C19.6134 30.799 19.7769 30.3331 19.7769 29.8364C19.7769 29.3397 19.6134 28.8738 19.0905 28.8738C18.5676 28.8738 18.4031 29.3399 18.4031 29.8364C18.4031 30.3329 18.5676 30.8 19.0905 30.8V30.799Z" fill="#0A99C6"/>
<path d="M21.3895 28.7323C21.5005 28.7323 21.5894 28.7412 21.7491 28.7499C21.882 28.7588 21.997 28.7677 22.0588 28.7677C22.1788 28.7711 22.2989 28.7637 22.4176 28.7453C22.4128 28.7762 22.41 28.8072 22.4093 28.8384C22.41 28.8696 22.4128 28.9008 22.4176 28.9317C22.2495 28.9186 22.0856 28.901 21.9259 28.8963L21.917 28.905C22.0111 28.9645 22.0885 29.047 22.142 29.1447C22.1955 29.2425 22.2232 29.3522 22.2227 29.4636C22.2227 29.9071 21.8992 30.1731 21.3986 30.1731C21.3196 30.1731 21.2392 30.1644 21.1545 30.1644C21.0991 30.1643 21.0458 30.1853 21.0054 30.2233C20.965 30.2612 20.9407 30.3132 20.9373 30.3685C20.9373 30.5242 20.9993 30.5902 21.1988 30.5949C21.3627 30.5997 21.5218 30.6038 21.6859 30.608C22.2268 30.6208 22.4439 30.8609 22.4439 31.1752C22.4439 31.5834 22.1382 32.0758 21.3937 32.0758C20.8263 32.0758 20.4675 31.8312 20.4675 31.4372C20.4713 31.3011 20.5197 31.1701 20.6054 31.0643C20.6911 30.9586 20.8092 30.884 20.9414 30.8522V30.8433C20.8609 30.8256 20.7891 30.7804 20.7382 30.7155C20.6873 30.6507 20.6605 30.5701 20.6624 30.4876C20.6666 30.4 20.6998 30.3163 20.7568 30.2497C20.8138 30.183 20.8913 30.1372 20.9772 30.1195V30.1106C20.8452 30.0607 20.7322 29.9706 20.6542 29.8529C20.5763 29.7352 20.5373 29.596 20.5427 29.4549C20.5433 28.9625 20.9288 28.7323 21.3895 28.7323ZM21.4472 30.8745C21.0127 30.8745 20.7513 31.0112 20.7513 31.3882C20.7513 31.7923 21.0352 31.9468 21.403 31.9468C21.7618 31.9468 22.1164 31.765 22.1164 31.3663C22.1176 31.0207 21.917 30.8745 21.4462 30.8745H21.4472ZM21.3943 28.8609C21.0753 28.8609 20.8887 29.0957 20.8887 29.4555C20.8887 29.8186 21.0485 30.0581 21.3895 30.0581C21.7266 30.0581 21.8773 29.7617 21.8773 29.4323C21.8773 29.0696 21.6818 28.8609 21.3943 28.8609Z" fill="#0A99C6"/>
<path d="M22.9186 28.9892C23.1188 28.8221 23.3716 28.7311 23.6323 28.7324C23.7235 28.7233 23.8156 28.7336 23.9026 28.7625C23.9896 28.7914 24.0695 28.8383 24.1371 28.9002C24.2048 28.9621 24.2587 29.0375 24.2953 29.1215C24.3319 29.2056 24.3504 29.2964 24.3496 29.3881C24.3496 29.7209 24.3316 30.0489 24.3316 30.4221C24.3316 30.5679 24.3316 30.7495 24.505 30.7495C24.5369 30.7518 24.5688 30.7459 24.5978 30.7323V30.8297C24.5084 30.8688 24.4122 30.8899 24.3146 30.8915C24.2764 30.8938 24.2381 30.8884 24.202 30.8758C24.1659 30.8631 24.1326 30.8434 24.1042 30.8177C24.0757 30.7921 24.0526 30.7611 24.0363 30.7265C24.0199 30.6919 24.0105 30.6544 24.0087 30.6161C23.9241 30.7185 23.8177 30.8007 23.6973 30.8568C23.5769 30.9129 23.4456 30.9415 23.3128 30.9405C23.2382 30.9442 23.1636 30.9328 23.0934 30.9073C23.0232 30.8818 22.9587 30.8425 22.9039 30.7917C22.849 30.741 22.8048 30.6799 22.7738 30.6119C22.7428 30.5438 22.7256 30.4703 22.7233 30.3956C22.7233 30.04 22.9627 29.8495 23.3481 29.7875C23.9907 29.6855 24.0127 29.6491 24.0127 29.4773C24.0127 29.1809 23.8798 28.9187 23.5255 28.9187C23.414 28.9142 23.3034 28.9398 23.2051 28.9926C23.1069 29.0455 23.0246 29.1237 22.9668 29.2192H22.9184L22.9186 28.9892ZM24.0127 29.7784C23.7072 29.8799 23.0867 29.8493 23.0867 30.333C23.082 30.3865 23.0885 30.4404 23.1057 30.4913C23.123 30.5422 23.1506 30.5889 23.1869 30.6286C23.2232 30.6682 23.2674 30.6998 23.3165 30.7214C23.3657 30.743 23.4189 30.7541 23.4726 30.754C23.5785 30.7497 23.6817 30.719 23.7729 30.6649C23.8641 30.6107 23.9405 30.5348 23.9951 30.4438L24.0127 29.7784Z" fill="#0A99C6"/>
<path d="M25.2045 28.8159C25.2045 28.4083 25.1958 27.8369 25.1692 27.5396C25.3007 27.5678 25.4367 27.5678 25.5683 27.5396C25.5414 27.8369 25.5327 28.4089 25.5327 28.8159V29.6191C25.5327 30.0273 25.5414 30.5995 25.5683 30.8955C25.4367 30.8673 25.3007 30.8673 25.1692 30.8955C25.1958 30.5991 25.2045 30.0273 25.2045 29.6191V28.8159Z" fill="#0A99C6"/>
<path d="M27.6505 29.7472V28.9848C27.6505 28.6036 27.6327 28.2179 27.6147 27.837C27.7581 27.866 27.9058 27.866 28.0492 27.837C28.0318 28.2179 28.0137 28.6036 28.0137 28.9848V29.2288C28.0137 29.2555 28.0227 29.2643 28.0403 29.2643C28.0579 29.2643 28.0672 29.2555 28.1025 29.2248C28.5745 28.7894 29.02 28.3262 29.4367 27.8376C29.4961 27.8514 29.5569 27.8587 29.618 27.8593C29.6894 27.8585 29.7605 27.8512 29.8307 27.8376C29.3344 28.2736 28.8612 28.7353 28.413 29.2207C28.8869 29.7567 29.3788 30.3289 29.8796 30.8962C29.7916 30.8828 29.7028 30.8757 29.6138 30.875C29.5321 30.8757 29.4506 30.8828 29.3699 30.8962C28.9491 30.3777 28.2801 29.5615 28.0891 29.371C28.0628 29.3452 28.0496 29.3357 28.036 29.3357C28.0294 29.3363 28.0234 29.3395 28.0192 29.3446C28.0151 29.3497 28.0131 29.3562 28.0137 29.3627V29.7478C28.0137 30.1296 28.0318 30.5152 28.0492 30.8962C27.9058 30.868 27.7582 30.868 27.6147 30.8962C27.6327 30.5146 27.6505 30.1282 27.6505 29.7472Z" fill="#0A99C6"/>
<path d="M30.305 28.9893C30.505 28.8224 30.7574 28.7314 31.0179 28.7325C31.4439 28.7325 31.7359 28.9943 31.7359 29.3882C31.7359 29.721 31.7183 30.049 31.7183 30.4222C31.7183 30.568 31.7184 30.7496 31.8913 30.7496C31.9232 30.7519 31.9552 30.7459 31.9842 30.7324V30.8298C31.8947 30.8689 31.7984 30.8899 31.7008 30.8916C31.6626 30.8938 31.6243 30.8884 31.5882 30.8757C31.5521 30.863 31.5189 30.8433 31.4905 30.8177C31.462 30.7921 31.4389 30.7611 31.4225 30.7265C31.4061 30.6919 31.3967 30.6544 31.3949 30.6162C31.3102 30.7187 31.2039 30.8009 31.0834 30.8571C30.963 30.9132 30.8316 30.9417 30.6988 30.9406C30.6242 30.9442 30.5496 30.9329 30.4795 30.9073C30.4093 30.8818 30.3449 30.8425 30.2901 30.7917C30.2353 30.741 30.1911 30.6799 30.1602 30.6119C30.1292 30.5439 30.1121 30.4704 30.1099 30.3957C30.1099 30.0401 30.3488 29.8496 30.7343 29.7875C31.3773 29.6856 31.399 29.6492 31.399 29.4773C31.399 29.181 31.2661 28.9188 30.9119 28.9188C30.8003 28.9143 30.6895 28.9398 30.5911 28.9926C30.4927 29.0455 30.4103 29.1237 30.3524 29.2193H30.3042L30.305 28.9893ZM31.399 29.7785C31.0933 29.88 30.4727 29.8494 30.4727 30.3331C30.468 30.3866 30.4745 30.4404 30.4917 30.4913C30.509 30.5421 30.5366 30.5888 30.5728 30.6284C30.6091 30.668 30.6532 30.6996 30.7023 30.7213C30.7514 30.7429 30.8045 30.7541 30.8581 30.7541C30.9642 30.7499 31.0675 30.7193 31.1588 30.6651C31.2501 30.611 31.3264 30.535 31.3811 30.4439L31.399 29.7785Z" fill="#0A99C6"/>
<path d="M32.1033 28.7765C32.2375 28.8062 32.3767 28.8062 32.5109 28.7765C32.6928 29.335 32.928 29.8894 33.1715 30.4792C33.4287 29.9267 33.6493 29.3579 33.832 28.7765C33.8795 28.7904 33.9287 28.7979 33.9782 28.7988C34.0278 28.7979 34.0771 28.7904 34.1247 28.7765C33.9649 29.1003 32.8837 31.4594 32.6977 32.0623C32.6485 32.0485 32.5977 32.041 32.5466 32.0399C32.4957 32.0409 32.445 32.0484 32.396 32.0623C32.6216 31.6897 32.8201 31.3014 32.9898 30.9003C32.786 30.3684 32.2285 29.0566 32.1033 28.7765Z" fill="#0A99C6"/>
<path d="M35.5202 28.9624C35.1075 28.9624 34.9218 29.2289 34.9218 29.6903V30.0677C34.9218 30.3332 34.9307 30.6434 34.9572 30.8957C34.8256 30.8676 34.6896 30.8676 34.5581 30.8957C34.5849 30.6434 34.5938 30.3332 34.5938 30.0677V29.6059C34.5938 29.34 34.5849 29.0296 34.5581 28.7761C34.6237 28.7901 34.6906 28.7976 34.7577 28.7984C34.8172 28.7963 34.8763 28.7888 34.9345 28.7761C34.9262 28.8958 34.9218 29.0114 34.9218 29.1305H34.9307C35.0024 29.0067 35.106 28.9044 35.2307 28.8342C35.3554 28.7641 35.4967 28.7287 35.6397 28.7318C35.9677 28.7318 36.3484 28.8911 36.3484 29.5024C36.3484 29.7549 36.3308 30.0214 36.3308 30.323C36.3308 30.5182 36.3308 30.7039 36.3395 30.8944C36.2784 30.8812 36.2161 30.8741 36.1535 30.8732C36.0923 30.8739 36.0314 30.881 35.9716 30.8944C35.9809 30.5713 36.0032 30.2481 36.0032 29.9064V29.6363C36.0032 29.2017 35.8127 28.9624 35.5202 28.9624Z" fill="#0A99C6"/>
<path d="M37.0667 28.9892C37.2671 28.8222 37.52 28.7313 37.7808 28.7324C37.872 28.7233 37.9641 28.7336 38.0512 28.7625C38.1382 28.7914 38.2181 28.8383 38.2858 28.9001C38.3535 28.962 38.4074 29.0374 38.4441 29.1215C38.4807 29.2056 38.4992 29.2964 38.4984 29.3882C38.4984 29.7209 38.4807 30.0489 38.4807 30.4221C38.4807 30.5679 38.4807 30.7495 38.6533 30.7495C38.6853 30.7518 38.7174 30.7459 38.7465 30.7323V30.8297C38.6569 30.8689 38.5604 30.8899 38.4627 30.8916C38.4245 30.8938 38.3863 30.8884 38.3502 30.8757C38.3141 30.863 38.2809 30.8433 38.2525 30.8177C38.224 30.7921 38.201 30.7611 38.1846 30.7265C38.1683 30.6919 38.159 30.6544 38.1572 30.6161C38.0726 30.7185 37.9662 30.8008 37.8458 30.8569C37.7254 30.913 37.5941 30.9416 37.4613 30.9406C37.3867 30.9441 37.3121 30.9328 37.2419 30.9073C37.1717 30.8817 37.1073 30.8424 37.0525 30.7917C36.9976 30.741 36.9534 30.6798 36.9224 30.6118C36.8915 30.5438 36.8743 30.4703 36.872 30.3956C36.872 30.04 37.1114 29.8495 37.4968 29.7875C38.1394 29.6855 38.1615 29.6492 38.1615 29.4773C38.1615 29.1809 38.0286 28.9187 37.6738 28.9187C37.5623 28.9144 37.4518 28.9401 37.3537 28.9931C37.2556 29.0462 37.1735 29.1246 37.1161 29.2202H37.0667V28.9892ZM38.1615 29.7784C37.8556 29.88 37.2354 29.8493 37.2354 30.333C37.2307 30.3865 37.2371 30.4404 37.2544 30.4913C37.2716 30.5422 37.2993 30.5889 37.3355 30.6285C37.3718 30.6681 37.4159 30.6997 37.4651 30.7213C37.5142 30.743 37.5673 30.7541 37.621 30.7541C37.727 30.7496 37.8302 30.7189 37.9213 30.6648C38.0125 30.6106 38.0889 30.5347 38.1436 30.4438L38.1615 29.7784Z" fill="#0A99C6"/>
<path d="M39.2728 28.8159C39.2728 28.4083 39.2641 27.8369 39.2374 27.5396C39.303 27.5531 39.3697 27.5601 39.4367 27.5607C39.5038 27.5601 39.5706 27.553 39.6363 27.5396C39.6097 27.8369 39.6012 28.4089 39.6012 28.8159V29.6233C39.6012 29.6764 39.6182 29.7076 39.6541 29.7076C39.6981 29.7076 39.7556 29.6594 39.8269 29.6057C40.1149 29.3456 40.3872 29.0685 40.6421 28.7758C40.6971 28.7907 40.7538 28.7982 40.8107 28.7982C40.885 28.7955 40.959 28.788 41.0323 28.7758C40.6646 29.0722 40.3188 29.3698 40.0125 29.6675C40.35 30.0751 40.7175 30.4875 41.0813 30.8949C40.9975 30.8826 40.9131 30.8755 40.8285 30.8738C40.7527 30.8744 40.677 30.8815 40.6024 30.8949C40.3457 30.559 39.9201 30.0621 39.7114 29.8404C39.7039 29.8289 39.6941 29.819 39.6827 29.8113C39.6713 29.8036 39.6585 29.7982 39.645 29.7956C39.6182 29.7956 39.6012 29.8133 39.6012 29.8487V30.1152C39.5996 30.3756 39.6113 30.6358 39.6363 30.8949C39.5706 30.8815 39.5038 30.8745 39.4367 30.8738C39.3697 30.8744 39.303 30.8815 39.2374 30.8949C39.2641 30.5985 39.2728 30.0267 39.2728 29.6185V28.8159Z" fill="#0A99C6"/>
<path d="M42.6844 30.3059C42.7435 30.4428 42.8414 30.5594 42.9658 30.6415C43.0903 30.7235 43.236 30.7675 43.385 30.7679C43.4699 30.7709 43.5544 30.7563 43.6333 30.7249C43.7121 30.6935 43.7836 30.646 43.8432 30.5855C43.9027 30.525 43.9491 30.4527 43.9792 30.3733C44.0094 30.2939 44.0227 30.2091 44.0183 30.1243C44.0183 29.3079 42.6226 29.6596 42.6226 28.6168C42.6226 28.1248 42.9948 27.7792 43.5843 27.7792C43.821 27.7667 44.0541 27.8408 44.2403 27.9875C44.1827 28.1051 44.1423 28.2304 44.1204 28.3595H44.0673C44.0366 28.2422 43.9685 28.1381 43.8733 28.0629C43.7781 27.9878 43.6611 27.9458 43.5399 27.9432C43.4654 27.9385 43.3908 27.9494 43.3208 27.975C43.2507 28.0007 43.1868 28.0406 43.133 28.0923C43.0791 28.144 43.0366 28.2062 43.0081 28.2752C42.9795 28.3441 42.9656 28.4183 42.9672 28.4929C42.9672 29.3227 44.3637 28.9766 44.3637 29.9562C44.3637 30.497 43.9605 30.9536 43.2776 30.9536C43.0113 30.9624 42.7511 30.8725 42.5469 30.7011C42.5951 30.5744 42.6235 30.4412 42.6313 30.3059H42.6844Z" fill="#0A99C6"/>
<path d="M44.9132 29.4812C44.9132 29.2736 44.9087 29.0248 44.9043 28.7765C44.9656 28.7903 45.0281 28.7978 45.0909 28.7988C45.1518 28.7977 45.2125 28.7902 45.2718 28.7765C45.2454 29.1226 45.2276 29.5745 45.2276 30.0086C45.2052 30.1986 45.2545 30.3902 45.3658 30.5458C45.4137 30.5989 45.4725 30.6411 45.5382 30.6693C45.6039 30.6975 45.6749 30.7111 45.7464 30.7092C45.847 30.7153 45.9473 30.6918 46.0347 30.6414C46.1221 30.5911 46.1928 30.5162 46.2381 30.4261C46.3271 30.235 46.3313 30.2002 46.3313 29.5036C46.3313 29.2643 46.3313 28.9898 46.3226 28.7765C46.3836 28.7908 46.446 28.7983 46.5086 28.7988C46.5699 28.7985 46.6308 28.791 46.6903 28.7765C46.664 29.237 46.6595 29.6547 46.6595 30.1242C46.6595 30.386 46.664 30.648 46.6773 30.8947C46.5637 30.8666 46.4449 30.8666 46.3313 30.8947C46.3404 30.7669 46.3404 30.6379 46.3404 30.5138H46.3313C46.2658 30.6411 46.1668 30.748 46.045 30.8231C45.9232 30.8981 45.7832 30.9384 45.6401 30.9396C45.5415 30.95 45.4418 30.9384 45.3482 30.9057C45.2546 30.873 45.1694 30.82 45.0987 30.7505C45.0279 30.681 44.9734 30.5967 44.939 30.5037C44.9046 30.4106 44.8912 30.3111 44.8998 30.2123C44.8996 29.9023 44.9132 29.6984 44.9132 29.4812Z" fill="#0A99C6"/>
<path d="M47.124 28.7765C47.1913 28.7905 47.2597 28.798 47.3284 28.7988C47.3968 28.798 47.4649 28.7905 47.5318 28.7765C47.7137 29.335 47.9485 29.8894 48.1924 30.4792C48.4493 29.9266 48.6699 29.3578 48.8527 28.7765C48.948 28.8062 49.05 28.8062 49.1452 28.7765C48.9856 29.1003 47.9043 31.4594 47.7186 32.0623C47.6202 32.0325 47.5153 32.0325 47.4169 32.0623C47.6427 31.6899 47.8411 31.3015 48.0105 30.9003C47.8065 30.3684 47.2482 29.0566 47.124 28.7765Z" fill="#0A99C6"/>
<path d="M49.5924 29.4812C49.5924 29.2736 49.5876 29.0248 49.5837 28.7765C49.6448 28.7903 49.7072 28.7978 49.7699 28.7988C49.831 28.7977 49.8918 28.7902 49.9514 28.7765C49.9245 29.1226 49.907 29.5745 49.907 30.0086C49.8851 30.1986 49.9343 30.39 50.0452 30.5458C50.0933 30.5989 50.1523 30.6409 50.2182 30.6691C50.284 30.6973 50.3551 30.711 50.4267 30.7092C50.5274 30.7151 50.6276 30.6915 50.715 30.6412C50.8024 30.5909 50.8732 30.5161 50.9186 30.4261C51.0071 30.235 51.0117 30.2002 51.0117 29.5036C51.0117 29.2643 51.0117 28.9898 51.003 28.7765C51.0638 28.7908 51.1261 28.7983 51.1886 28.7988C51.2499 28.7985 51.3111 28.791 51.3707 28.7765C51.344 29.237 51.3395 29.6547 51.3395 30.1242C51.3395 30.386 51.344 30.648 51.3574 30.8947C51.2439 30.8665 51.1252 30.8665 51.0117 30.8947C51.0205 30.7669 51.0205 30.6379 51.0205 30.5138H51.0117C50.9461 30.641 50.8471 30.7479 50.7253 30.823C50.6035 30.898 50.4635 30.9383 50.3205 30.9396C50.2219 30.9499 50.1222 30.9384 50.0286 30.9057C49.935 30.873 49.8497 30.82 49.7789 30.7505C49.7082 30.681 49.6537 30.5967 49.6193 30.5037C49.5848 30.4106 49.5714 30.3111 49.5799 30.2123C49.5788 29.9023 49.5924 29.6984 49.5924 29.4812Z" fill="#0A99C6"/>
<path d="M22.1079 27.7642H22.0092C22.0092 27.7642 21.9956 28.1612 21.491 28.1612C20.9865 28.1612 20.973 27.7642 20.973 27.7642H20.8743C20.8675 27.8466 20.8788 27.9295 20.9075 28.0071C20.9362 28.0846 20.9816 28.155 21.0404 28.2131C21.0992 28.2712 21.17 28.3157 21.2479 28.3434C21.3258 28.3711 21.4088 28.3814 21.491 28.3736C21.5733 28.3814 21.6563 28.3712 21.7342 28.3434C21.8121 28.3157 21.883 28.2712 21.9418 28.2131C22.0006 28.155 22.046 28.0847 22.0747 28.0071C22.1034 27.9296 22.1148 27.8467 22.1079 27.7642Z" fill="#0A99C6"/>
</svg>
